<svg width="216" height="72" viewBox="0 0 216 72" fill="none" xmlns="http://www.w3.org/2000/svg">
<path d="M30.3083 66.0993C13.5697 63.0709 2.45532 47.0466 5.48366 30.308C8.51203 13.5694 24.5363 2.45495 41.2749 5.48329" stroke="black"/>
<path d="M5.48242 30.308C8.51078 13.5694 24.535 2.45496 41.2737 5.48329C58.0123 8.51161 69.1267 24.5359 66.0984 41.2746" stroke="black"/>
<path d="M24.7225 50.272C23.9225 50.272 23.3145 50.096 22.8985 49.744C22.5145 49.392 22.3225 48.912 22.3225 48.304C22.3225 47.728 22.4985 47.104 22.8505 46.432C23.2025 45.76 23.6985 45.136 24.3385 44.56C24.5305 44.4 24.6905 44.304 24.8185 44.272C24.9145 44.272 24.9945 44.304 25.0585 44.368C25.0905 44.4 25.1065 44.464 25.1065 44.56C25.1065 44.784 24.9625 45.04 24.6745 45.328C23.7785 46.256 23.3305 47.04 23.3305 47.68C23.3305 48.032 23.4905 48.352 23.8105 48.64C24.1305 48.928 24.4985 49.056 24.9145 49.024C26.5145 48.96 28.1625 48.608 29.8585 47.968C31.5545 47.328 33.1385 46.448 34.6105 45.328C36.0825 44.176 37.2985 42.864 38.2585 41.392C38.9625 40.368 39.3145 39.472 39.3145 38.704C39.3145 37.712 38.6745 37.216 37.3945 37.216C37.1705 37.216 36.9145 37.248 36.6265 37.312C36.3385 37.344 36.0185 37.392 35.6665 37.456L33.2665 37.984C31.3145 38.4 29.5865 38.768 28.0825 39.088C26.5785 39.376 25.2345 39.52 24.0505 39.52C22.6745 39.52 21.6025 39.312 20.8345 38.896C20.0985 38.448 19.7305 37.696 19.7305 36.64C19.7305 36.16 19.8265 35.584 20.0185 34.912C20.6585 32.8 22.3705 30.56 25.1545 28.192C27.0425 26.592 29.1545 25.168 31.4905 23.92C33.8265 22.64 36.1785 21.632 38.5465 20.896C40.9465 20.128 43.1865 19.744 45.2665 19.744C46.8665 19.744 48.1305 20.096 49.0585 20.8C50.0185 21.504 50.4985 22.464 50.4985 23.68C50.4985 24.8 50.0985 26 49.2985 27.28C49.0745 27.6 48.8825 27.76 48.7225 27.76C48.6585 27.76 48.5945 27.712 48.5305 27.616C48.4665 27.488 48.4345 27.36 48.4345 27.232C48.4345 27.2 48.4345 27.152 48.4345 27.088C48.4665 26.992 48.4985 26.88 48.5305 26.752C48.7865 25.984 48.9145 25.248 48.9145 24.544C48.9145 23.456 48.5305 22.64 47.7625 22.096C47.0265 21.552 45.9545 21.344 44.5465 21.472C42.0825 21.728 39.2665 22.512 36.0985 23.824C33.9545 24.72 31.9225 25.776 30.0025 26.992C28.1145 28.208 26.4825 29.504 25.1065 30.88C23.7625 32.224 22.8345 33.584 22.3225 34.96C22.1945 35.216 22.1305 35.52 22.1305 35.872C22.1305 37.152 23.3945 37.792 25.9225 37.792C27.1385 37.792 28.4665 37.664 29.9065 37.408C31.3785 37.152 33.0745 36.832 34.9945 36.448L36.6745 36.112C37.2505 36.016 37.8105 35.968 38.3545 35.968C39.3785 35.968 40.1945 36.176 40.8025 36.592C41.4105 37.008 41.7145 37.584 41.7145 38.32C41.7145 38.992 41.4265 39.792 40.8505 40.72C40.3065 41.584 39.6665 42.416 38.9305 43.216C38.1945 43.984 37.3785 44.736 36.4825 45.472C34.6585 46.944 32.7065 48.112 30.6265 48.976C28.5465 49.84 26.5785 50.272 24.7225 50.272Z" fill="black"/>
<path d="M25.5233 53.472C24.7232 53.472 24.1153 53.296 23.6993 52.944C23.3153 52.592 23.1232 52.112 23.1232 51.504C23.1232 50.928 23.2993 50.304 23.6513 49.632C24.0033 48.96 24.4993 48.336 25.1393 47.76C25.3313 47.6 25.4913 47.504 25.6193 47.472C25.7153 47.472 25.7953 47.504 25.8593 47.568C25.8913 47.6 25.9072 47.664 25.9072 47.76C25.9072 47.984 25.7633 48.24 25.4753 48.528C24.5793 49.456 24.1313 50.24 24.1313 50.88C24.1313 51.232 24.2913 51.552 24.6113 51.84C24.9313 52.128 25.2993 52.256 25.7153 52.224C27.3153 52.16 28.9633 51.808 30.6593 51.168C32.3553 50.528 33.9393 49.648 35.4113 48.528C36.8833 47.376 38.0993 46.064 39.0593 44.592C39.7633 43.568 40.1153 42.672 40.1153 41.904C40.1153 40.912 39.4753 40.416 38.1952 40.416C37.9713 40.416 37.7153 40.448 37.4273 40.512C37.1393 40.544 36.8193 40.592 36.4672 40.656L34.0673 41.184C32.1153 41.6 30.3873 41.968 28.8833 42.288C27.3793 42.576 26.0353 42.72 24.8513 42.72C23.4753 42.72 22.4033 42.512 21.6353 42.096C20.8993 41.648 20.5312 40.896 20.5312 39.84C20.5312 39.36 20.6273 38.784 20.8193 38.112C21.4593 36 23.1713 33.76 25.9553 31.392C27.8433 29.792 29.9552 28.368 32.2912 27.12C34.6272 25.84 36.9793 24.832 39.3473 24.096C41.7473 23.328 43.9873 22.944 46.0673 22.944C47.6672 22.944 48.9313 23.296 49.8593 24C50.8193 24.704 51.2992 25.664 51.2992 26.88C51.2992 28 50.8993 29.2 50.0992 30.48C49.8752 30.8 49.6832 30.96 49.5232 30.96C49.4592 30.96 49.3953 30.912 49.3313 30.816C49.2673 30.688 49.2352 30.56 49.2352 30.432C49.2352 30.4 49.2352 30.352 49.2352 30.288C49.2672 30.192 49.2992 30.08 49.3313 29.952C49.5872 29.184 49.7153 28.448 49.7153 27.744C49.7153 26.656 49.3313 25.84 48.5633 25.296C47.8273 24.752 46.7553 24.544 45.3473 24.672C42.8833 24.928 40.0673 25.712 36.8993 27.024C34.7553 27.92 32.7233 28.976 30.8033 30.192C28.9153 31.408 27.2832 32.704 25.9072 34.08C24.5632 35.424 23.6352 36.784 23.1232 38.16C22.9952 38.416 22.9313 38.72 22.9313 39.072C22.9313 40.352 24.1952 40.992 26.7232 40.992C27.9392 40.992 29.2673 40.864 30.7072 40.608C32.1792 40.352 33.8752 40.032 35.7952 39.648L37.4753 39.312C38.0513 39.216 38.6112 39.168 39.1553 39.168C40.1793 39.168 40.9953 39.376 41.6033 39.792C42.2113 40.208 42.5153 40.784 42.5153 41.52C42.5153 42.192 42.2272 42.992 41.6513 43.92C41.1073 44.784 40.4673 45.616 39.7313 46.416C38.9953 47.184 38.1793 47.936 37.2833 48.672C35.4593 50.144 33.5073 51.312 31.4273 52.176C29.3473 53.04 27.3793 53.472 25.5233 53.472Z" fill="black"/>
<path d="M102.698 44.0246C102.751 44.0246 102.787 44.0514 102.805 44.1051C102.769 44.1588 102.742 44.1856 102.725 44.1856C102.063 44.1856 101.509 44.1051 101.062 43.9441C100.616 43.7652 100.258 43.5326 99.9901 43.2464C99.7399 42.9601 99.5433 42.5397 99.4003 41.9851C99.2752 41.4126 99.1858 40.8401 99.1322 40.2677C99.0965 39.6773 99.0786 38.908 99.0786 37.9598V31.6535V29.4799H98.5156V29.3189H99.0786V28.0576L101.116 26.045V29.3189H101.84V29.4799H101.116V31.3852V34.9006V36.6449V38.4697C101.134 39.4358 101.161 40.2319 101.196 40.858C101.232 41.4663 101.304 42.0299 101.411 42.5486C101.536 43.0674 101.697 43.4431 101.893 43.6757C102.108 43.9083 102.376 44.0246 102.698 44.0246ZM115.882 43.8099C116.042 43.8457 116.123 43.8815 116.123 43.9172C116.123 43.9888 116.051 44.0246 115.908 44.0246C115.837 44.0246 115.73 44.0246 115.587 44.0246C115.461 44.0246 115.229 44.0157 114.89 43.9977C114.55 43.962 114.246 43.9083 113.978 43.8367C113.728 43.7652 113.496 43.64 113.281 43.461C113.084 43.2821 112.986 43.0674 112.986 42.817C112.986 42.5307 112.924 42.3787 112.799 42.3608C112.691 42.325 112.575 42.3697 112.45 42.495L112.262 42.656C111.369 43.6757 110.243 44.1856 108.885 44.1856C107.633 44.1856 106.552 43.7652 105.641 42.9243C104.622 41.9762 104.113 40.8044 104.113 39.4089V32.2439C103.97 31.7788 103.675 31.5104 103.228 31.4389L103.121 31.412C103.085 31.412 103.067 31.3852 103.067 31.3315C103.067 31.2778 103.094 31.251 103.148 31.251H107.035C107.178 31.251 107.258 31.2778 107.276 31.3315C107.258 31.3852 107.169 31.4209 107.008 31.4389C106.579 31.5104 106.293 31.7788 106.15 32.2439V39.4089C106.15 40.6433 106.4 41.5468 106.901 42.1193C107.401 42.6917 108.098 43.0496 108.992 43.1927C109.939 43.2821 110.824 43.0854 111.646 42.6023C112.539 41.9583 112.986 40.9206 112.986 39.4894V32.2439C112.825 31.7788 112.53 31.5104 112.102 31.4389H111.994C111.959 31.4209 111.941 31.3852 111.941 31.3315C111.941 31.2778 111.968 31.251 112.021 31.251H115.908C116.051 31.251 116.123 31.2778 116.123 31.3315C116.123 31.3852 116.042 31.4209 115.882 31.4389C115.453 31.5104 115.158 31.7788 114.997 32.2439V41.3947V42.6828C114.997 42.9691 115.086 43.2195 115.265 43.4342C115.444 43.6489 115.649 43.7741 115.882 43.8099ZM130.712 43.8099C130.873 43.8457 130.954 43.8815 130.954 43.9172V44.0246C128.863 44.0246 127.817 43.7205 127.817 43.1122C127.817 42.6828 127.692 42.4324 127.442 42.3608C127.192 42.2714 126.906 42.3876 126.584 42.7097C126.584 42.7097 126.575 42.7186 126.557 42.7365C126.539 42.7544 126.53 42.7633 126.53 42.7633C125.547 43.7115 124.421 44.1856 123.153 44.1856C121.633 44.1856 120.329 43.5505 119.239 42.2803C118.166 40.9922 117.63 39.4447 117.63 37.6378C117.63 35.8309 118.166 34.2834 119.239 32.9953C120.329 31.7072 121.633 31.0632 123.153 31.0632C124.475 31.0632 125.655 31.5999 126.691 32.6733C126.888 32.888 127.058 33.0042 127.201 33.0221C127.361 33.04 127.478 32.9774 127.549 32.8343C127.638 32.6733 127.701 32.5033 127.737 32.3244C127.772 32.1277 127.799 31.913 127.817 31.6804V24.6764C127.656 24.2291 127.361 23.9697 126.933 23.8982C126.933 23.8982 126.915 23.8982 126.879 23.8982C126.843 23.8802 126.825 23.8713 126.825 23.8713C126.79 23.8534 126.772 23.8266 126.772 23.7908C126.772 23.7371 126.79 23.7014 126.825 23.6835H130.739C130.883 23.6835 130.954 23.7192 130.954 23.7908C130.954 23.8266 130.873 23.8624 130.712 23.8982C130.283 23.9697 129.998 24.2291 129.854 24.6764V42.7902C129.854 43.3805 130.141 43.7205 130.712 43.8099ZM127.817 39.0332V36.5912C127.764 35.1779 127.433 34.0776 126.825 33.2905C125.896 32.2887 125.002 31.7877 124.144 31.7877C122.911 31.7877 121.91 32.3513 121.142 33.4783C120.391 34.5875 120.016 35.974 120.016 37.6378C120.016 39.2837 120.391 40.6702 121.142 41.7973C121.91 42.9243 122.911 43.4879 124.144 43.4879C125.056 43.4879 125.896 43.0854 126.664 42.2803C126.682 42.2445 126.7 42.2266 126.718 42.2266C127.379 41.4395 127.746 40.375 127.817 39.0332ZM142.797 31.251C142.921 31.251 142.993 31.2778 143.011 31.3315C143.011 31.3852 142.931 31.4209 142.77 31.4389C142.627 31.4746 142.475 31.5462 142.314 31.6535C142.171 31.743 142.082 31.8503 142.046 31.9756L138.695 40.9922L137.65 43.7562C136.184 47.6742 135.38 49.821 135.237 50.1967C134.808 51.1091 134.039 51.5653 132.931 51.5653C132.627 51.5653 132.323 51.4669 132.02 51.2701C131.734 51.1091 131.537 50.8676 131.43 50.5455C131.323 50.2056 131.35 49.8747 131.51 49.5526C131.671 49.2485 131.913 49.0339 132.234 48.9086C132.573 48.8013 132.895 48.8281 133.199 48.9891C133.521 49.1501 133.744 49.4006 133.87 49.7405C133.977 50.0983 133.941 50.4203 133.762 50.7066C133.602 51.0107 133.36 51.2343 133.039 51.3774C134.057 51.3774 134.754 50.9392 135.13 50.0625L137.569 43.5147L137.087 42.4413L134.299 35.8667L133.843 34.8201L132.851 32.5123L132.529 31.6804C132.368 31.5551 132.189 31.4746 131.993 31.4389C131.832 31.4209 131.752 31.3852 131.752 31.3315C131.752 31.2778 131.823 31.251 131.966 31.251H135.907C136.05 31.251 136.122 31.2778 136.122 31.3315C136.122 31.3852 136.041 31.4209 135.88 31.4389C135.201 31.5641 135.022 32.1366 135.344 33.1563L135.719 34.015L136.148 35.0616L138.588 40.7507C140.75 34.9364 141.849 31.9935 141.885 31.9219C141.903 31.8145 141.876 31.7251 141.805 31.6535C141.733 31.582 141.653 31.5373 141.564 31.5194C141.492 31.4836 141.393 31.4568 141.269 31.4389C141.108 31.4209 141.027 31.3852 141.027 31.3315C141.027 31.2778 141.098 31.251 141.242 31.251H141.885H142.127H142.314C142.385 31.251 142.475 31.251 142.582 31.251C142.69 31.251 142.761 31.251 142.797 31.251ZM172.183 31.0632C173.721 31.0632 175.025 31.7072 176.097 32.9953C177.188 34.2834 177.733 35.8309 177.733 37.6378C177.733 39.4447 177.188 40.9922 176.097 42.2803C175.025 43.5505 173.721 44.1856 172.183 44.1856C170.861 44.1856 169.69 43.6489 168.671 42.5755C167.992 41.9135 167.608 42.2535 167.519 43.5952V50.5992C167.679 51.0465 167.974 51.3059 168.403 51.3774C168.421 51.3774 168.448 51.3864 168.484 51.4043H168.511C168.564 51.4043 168.591 51.4311 168.591 51.4848C168.591 51.5385 168.564 51.5653 168.511 51.5653H164.597C164.454 51.5653 164.382 51.5385 164.382 51.4848C164.382 51.449 164.462 51.4132 164.623 51.3774C165.052 51.3059 165.347 51.0465 165.508 50.5992V32.4854C165.508 31.8951 165.213 31.5462 164.623 31.4389C164.462 31.4209 164.382 31.3941 164.382 31.3583V31.251C166.473 31.251 167.519 31.5551 167.519 32.1634C167.519 32.5928 167.644 32.8432 167.894 32.9148C168.145 32.9864 168.439 32.87 168.779 32.5659C168.779 32.548 168.779 32.5391 168.779 32.5391C168.797 32.5212 168.815 32.5033 168.832 32.4854C169.797 31.5373 170.915 31.0632 172.183 31.0632ZM171.191 43.4879C172.424 43.4879 173.426 42.9243 174.194 41.7973C174.963 40.6702 175.347 39.2837 175.347 37.6378C175.347 36.8327 175.239 36.0724 175.025 35.3568C174.829 34.6412 174.552 34.024 174.194 33.5052C173.855 32.9685 173.426 32.548 172.907 32.2439C172.389 31.9398 171.817 31.7877 171.191 31.7877C170.298 31.7877 169.458 32.1902 168.671 32.9953C168.654 33.0311 168.645 33.049 168.645 33.049C167.984 33.8361 167.608 34.8917 167.519 36.2155V38.6844C167.572 40.0977 167.912 41.198 168.537 41.9851C169.467 42.9869 170.352 43.4879 171.191 43.4879ZM190.621 43.8904C190.675 43.8904 190.702 43.9172 190.702 43.9709C190.702 44.0067 190.675 44.0246 190.621 44.0246H187.967V41.2069C187.627 42.1014 187.091 42.8081 186.359 43.3269C185.644 43.8278 184.902 44.1051 184.134 44.1588C183.365 44.2124 182.632 44.123 181.935 43.8904C181.238 43.6578 180.72 43.3179 180.381 42.8707C179.933 42.2803 179.674 41.672 179.603 41.0459C179.549 40.4018 179.647 39.8383 179.898 39.3553C180.148 38.8543 180.461 38.416 180.836 38.0403C181.229 37.6467 181.658 37.3515 182.123 37.1548C182.284 37.0832 182.695 36.958 183.356 36.7791C184.017 36.6001 184.67 36.4213 185.313 36.2424C185.974 36.0456 186.394 35.8935 186.573 35.7862C186.627 35.7504 186.716 35.6967 186.841 35.6252C186.966 35.5536 187.056 35.4999 187.109 35.4641C187.163 35.4284 187.243 35.3836 187.351 35.33C187.458 35.2584 187.529 35.2047 187.565 35.169C187.619 35.1153 187.681 35.0616 187.753 35.0079C187.824 34.9364 187.877 34.8738 187.914 34.8201C187.949 34.7664 187.985 34.7038 188.021 34.6322C188.056 34.5607 188.074 34.4802 188.074 34.3907C188.074 33.6751 187.815 33.0579 187.297 32.5391C186.778 32.0024 186.135 31.6893 185.367 31.5999C184.634 31.5283 183.99 31.6088 183.437 31.8414C182.9 32.0561 182.498 32.3692 182.23 32.7806C181.962 33.1921 181.765 33.6036 181.64 34.015C181.515 34.4086 181.453 34.7843 181.453 35.1421H179.415C179.415 34.4444 179.62 33.8272 180.032 33.2905C180.443 32.7359 180.952 32.3155 181.56 32.0292C182.185 31.7251 182.829 31.5104 183.49 31.3852C184.169 31.2421 184.794 31.1973 185.367 31.251C186.564 31.3404 187.565 31.5909 188.369 32.0024C189.191 32.4138 189.7 32.9506 189.897 33.6125C190.237 34.7396 190.335 36.5555 190.192 39.0601C190.139 40.1335 190.112 41.5468 190.112 43.3V43.3269C190.183 43.7026 190.353 43.8904 190.621 43.8904ZM188.128 39.1942L188.155 38.8991L188.128 34.7933C187.753 35.6699 186.904 36.466 185.581 37.1816C185.242 37.3605 184.893 37.5752 184.536 37.8256C184.178 38.0761 183.821 38.3803 183.463 38.738C183.106 39.0958 182.82 39.4537 182.606 39.8115C182.391 40.1514 182.284 40.5181 182.284 40.9117C182.301 41.3053 182.472 41.6631 182.793 41.9851C183.115 42.3071 183.49 42.5666 183.919 42.7633C184.366 42.9423 184.884 42.9959 185.474 42.9243C186.064 42.8349 186.609 42.5576 187.109 42.0924C187.681 41.5557 188.003 40.9028 188.074 40.1335L188.128 39.1942ZM202.613 40.858V42.4413V43.9441C202.613 43.9977 202.586 44.0246 202.533 44.0246C202.497 44.0246 202.479 43.9977 202.479 43.9441V43.7831C202.479 43.7652 202.47 43.7473 202.452 43.7294C202.452 43.7115 202.452 43.6936 202.452 43.6757C202.417 43.479 202.31 43.3537 202.131 43.3C201.952 43.2464 201.729 43.2553 201.46 43.3269C201.21 43.3985 200.951 43.4879 200.683 43.5952C200.433 43.6846 200.156 43.7831 199.852 43.8904C199.566 43.9798 199.343 44.0246 199.182 44.0246H199.209C198.78 44.1319 198.359 44.1856 197.949 44.1856C196.429 44.1856 195.125 43.5505 194.035 42.2803C192.962 40.9922 192.426 39.4447 192.426 37.6378C192.426 35.8309 192.962 34.2834 194.035 32.9953C195.125 31.7072 196.429 31.0632 197.949 31.0632C198.914 31.0632 199.816 31.3673 200.656 31.9756C201.496 32.5659 202.149 33.3531 202.613 34.3371V34.6591C202.202 33.9077 201.648 33.2457 200.951 32.6733C200.254 32.0829 199.584 31.7877 198.941 31.7877C198.118 31.7877 197.386 32.0471 196.742 32.5659C196.117 33.0847 195.634 33.7914 195.295 34.6859C194.973 35.5626 194.812 36.5465 194.812 37.6378C194.812 39.2837 195.187 40.6702 195.938 41.7973C196.707 42.9243 197.707 43.4879 198.941 43.4879C199.656 43.4879 200.343 43.2195 201.005 42.6828C201.666 42.1461 202.202 41.4037 202.613 40.4555V40.858ZM210.209 43.9441C211.067 43.9441 211.809 43.4879 212.434 42.5755C213.078 41.6631 213.489 40.4913 213.668 39.0601H216C215.714 40.5449 215.026 41.7704 213.936 42.7365C212.863 43.7026 211.621 44.1856 210.209 44.1856C208.583 44.1856 207.189 43.5505 206.027 42.2803C204.866 40.9922 204.285 39.4447 204.285 37.6378C204.285 36.4391 204.544 35.3389 205.062 34.3371C205.598 33.3352 206.322 32.5391 207.234 31.9487C208.145 31.3584 209.137 31.0632 210.209 31.0632C211.621 31.0632 212.863 31.5551 213.936 32.5391C215.026 33.5052 215.714 34.7307 216 36.2155H214.686V36.2424H209.727V36.0545H213.641C213.516 35.1421 213.284 34.3281 212.944 33.6125C212.622 32.8969 212.22 32.3423 211.737 31.9487C211.273 31.5373 210.764 31.3315 210.209 31.3315C209.227 31.3315 208.386 31.9398 207.689 33.1563C207.01 34.355 206.671 35.8488 206.671 37.6378C206.671 39.4268 207.01 40.9296 207.689 42.1461C208.386 43.3448 209.227 43.9441 210.209 43.9441Z" fill="black"/>
<path d="M84.1821 46.6008C83.5119 46.6008 83.0025 46.4532 82.654 46.158C82.3323 45.8629 82.1715 45.4603 82.1715 44.9505C82.1715 44.4674 82.3189 43.9441 82.6138 43.3806C82.9087 42.8171 83.3242 42.2938 83.8604 41.8107C84.0212 41.6766 84.1553 41.596 84.2625 41.5692C84.3429 41.5692 84.41 41.596 84.4636 41.6497C84.4904 41.6766 84.5038 41.7302 84.5038 41.8107C84.5038 41.9986 84.3831 42.2133 84.1419 42.4548C83.3912 43.233 83.0159 43.8905 83.0159 44.4272C83.0159 44.7224 83.15 44.9907 83.418 45.2322C83.6861 45.4737 83.9944 45.5811 84.3429 45.5542C85.6833 45.5006 87.064 45.2054 88.4848 44.6687C89.9056 44.132 91.2326 43.394 92.4658 42.4548C93.699 41.4887 94.7177 40.3885 95.522 39.154C96.1117 38.2953 96.4066 37.5439 96.4066 36.8999C96.4066 36.068 95.8705 35.652 94.7981 35.652C94.6105 35.652 94.396 35.6789 94.1547 35.7325C93.9135 35.7594 93.6454 35.7996 93.3505 35.8533L91.3399 36.2961C89.7046 36.6449 88.2569 36.9536 86.9969 37.2219C85.737 37.4634 84.611 37.5842 83.6191 37.5842C82.4664 37.5842 81.5683 37.4097 80.9249 37.0609C80.3083 36.6852 80 36.0546 80 35.169C80 34.7665 80.0804 34.2834 80.2413 33.7199C80.7774 31.9488 82.2117 30.0703 84.544 28.0845C86.1257 26.7427 87.895 25.5486 89.852 24.502C91.809 23.4286 93.7794 22.5833 95.7632 21.9661C97.7738 21.322 99.6504 21 101.393 21C102.733 21 103.792 21.2952 104.57 21.8856C105.374 22.4759 105.776 23.281 105.776 24.3007C105.776 25.24 105.441 26.2463 104.771 27.3197C104.583 27.5881 104.422 27.7222 104.288 27.7222C104.235 27.7222 104.181 27.682 104.127 27.6015C104.074 27.4941 104.047 27.3868 104.047 27.2794C104.047 27.2526 104.047 27.2124 104.047 27.1587C104.074 27.0782 104.101 26.9843 104.127 26.8769C104.342 26.2329 104.449 25.6157 104.449 25.0253C104.449 24.1129 104.127 23.4286 103.484 22.9724C102.867 22.5162 101.969 22.3418 100.79 22.4491C98.7255 22.6638 96.3664 23.3212 93.7124 24.4215C91.9162 25.1729 90.2139 26.0584 88.6054 27.0782C87.0238 28.0979 85.6565 29.1847 84.5038 30.3387C83.3778 31.4657 82.6004 32.6062 82.1715 33.7602C82.0642 33.9748 82.0106 34.2298 82.0106 34.525C82.0106 35.5984 83.0695 36.1351 85.1874 36.1351C86.2061 36.1351 87.3186 36.0277 88.525 35.8131C89.7582 35.5984 91.179 35.33 92.7875 35.008L94.1949 34.7262C94.6775 34.6457 95.1466 34.6055 95.6024 34.6055C96.4602 34.6055 97.1439 34.7799 97.6532 35.1288C98.1626 35.4776 98.4172 35.9606 98.4172 36.5779C98.4172 37.1414 98.176 37.8123 97.6934 38.5905C97.2377 39.3151 96.7015 40.0128 96.0849 40.6836C95.4683 41.3277 94.7847 41.9583 94.0341 42.5755C92.506 43.81 90.8707 44.7894 89.1282 45.514C87.3857 46.2385 85.737 46.6008 84.1821 46.6008Z" fill="black"/>
<path d="M151.202 46.6008C150.531 46.6008 150.022 46.4532 149.674 46.158C149.352 45.8629 149.191 45.4603 149.191 44.9505C149.191 44.4674 149.338 43.9441 149.633 43.3806C149.928 42.8171 150.344 42.2938 150.88 41.8107C151.041 41.6766 151.175 41.596 151.282 41.5692C151.362 41.5692 151.429 41.596 151.483 41.6497C151.51 41.6766 151.523 41.7302 151.523 41.8107C151.523 41.9986 151.403 42.2133 151.161 42.4548C150.411 43.233 150.035 43.8905 150.035 44.4272C150.035 44.7224 150.169 44.9907 150.438 45.2322C150.706 45.4737 151.014 45.5811 151.362 45.5542C152.703 45.5006 154.083 45.2054 155.504 44.6687C156.925 44.132 158.252 43.394 159.485 42.4548C160.719 41.4887 161.737 40.3885 162.541 39.154C163.131 38.2953 163.426 37.5439 163.426 36.8999C163.426 36.068 162.89 35.652 161.818 35.652C161.63 35.652 161.416 35.6789 161.174 35.7325C160.933 35.7594 160.665 35.7996 160.37 35.8533L158.359 36.2961C156.724 36.6449 155.276 36.9536 154.016 37.2219C152.756 37.4634 151.631 37.5842 150.639 37.5842C149.486 37.5842 148.588 37.4097 147.944 37.0609C147.328 36.6852 147.02 36.0546 147.02 35.169C147.02 34.7665 147.1 34.2834 147.261 33.7199C147.797 31.9488 149.231 30.0703 151.564 28.0845C153.145 26.7427 154.915 25.5486 156.872 24.502C158.829 23.4286 160.799 22.5833 162.783 21.9661C164.793 21.322 166.67 21 168.412 21C169.753 21 170.812 21.2952 171.589 21.8856C172.393 22.4759 172.796 23.281 172.796 24.3007C172.796 25.24 172.461 26.2463 171.79 27.3197C171.603 27.5881 171.442 27.7222 171.308 27.7222C171.254 27.7222 171.201 27.682 171.147 27.6015C171.093 27.4941 171.066 27.3868 171.066 27.2794C171.066 27.2526 171.066 27.2124 171.066 27.1587C171.093 27.0782 171.12 26.9843 171.147 26.8769C171.361 26.2329 171.469 25.6157 171.469 25.0253C171.469 24.1129 171.147 23.4286 170.504 22.9724C169.887 22.5162 168.989 22.3418 167.809 22.4491C165.745 22.6638 163.386 23.3212 160.732 24.4215C158.936 25.1729 157.233 26.0584 155.625 27.0782C154.043 28.0979 152.676 29.1847 151.523 30.3387C150.397 31.4657 149.62 32.6062 149.191 33.7602C149.084 33.9748 149.03 34.2298 149.03 34.525C149.03 35.5984 150.089 36.1351 152.207 36.1351C153.226 36.1351 154.338 36.0277 155.545 35.8131C156.778 35.5984 158.199 35.33 159.807 35.008L161.214 34.7262C161.697 34.6457 162.166 34.6055 162.622 34.6055C163.48 34.6055 164.163 34.7799 164.673 35.1288C165.182 35.4776 165.437 35.9606 165.437 36.5779C165.437 37.1414 165.195 37.8123 164.713 38.5905C164.257 39.3151 163.721 40.0128 163.104 40.6836C162.488 41.3277 161.804 41.9583 161.054 42.5755C159.526 43.81 157.89 44.7894 156.148 45.514C154.405 46.2385 152.756 46.6008 151.202 46.6008Z" fill="black"/>
</svg>
