<svg width="128" height="128" viewBox="0 0 128 128" fill="none" xmlns="http://www.w3.org/2000/svg">
<path d="M53.8802 117.51C24.1226 112.126 4.36371 83.6385 9.74743 53.8809C15.1312 24.1233 43.6187 4.36435 73.3763 9.74807" stroke="black"/>
<path d="M9.74805 53.8809C15.1318 24.1233 43.6193 4.36436 73.3769 9.74806C103.135 15.1317 122.893 43.6194 117.51 73.377" stroke="black"/>
<path d="M43.9508 89.3724C42.5286 89.3724 41.4477 89.0595 40.7082 88.4338C40.0255 87.808 39.6842 86.9547 39.6842 85.8738C39.6842 84.8498 39.9971 83.7404 40.6228 82.5458C41.2486 81.3511 42.1304 80.2418 43.2682 79.2178C43.6095 78.9333 43.894 78.7627 44.1215 78.7058C44.2922 78.7058 44.4344 78.7627 44.5482 78.8764C44.6051 78.9333 44.6335 79.0471 44.6335 79.2178C44.6335 79.616 44.3775 80.0711 43.8655 80.5831C42.2726 82.2329 41.4762 83.6267 41.4762 84.7644C41.4762 85.3902 41.7606 85.9591 42.3295 86.4711C42.8984 86.9831 43.5526 87.2107 44.2922 87.1538C47.1366 87.04 50.0664 86.4142 53.0815 85.2764C56.0966 84.1387 58.9126 82.5742 61.5295 80.5831C64.1464 78.5351 66.3082 76.2027 68.0148 73.5858C69.2664 71.7653 69.8922 70.1724 69.8922 68.8071C69.8922 67.0435 68.7544 66.1618 66.4788 66.1618C66.0806 66.1618 65.6255 66.2187 65.1135 66.3324C64.6015 66.3893 64.0326 66.4747 63.4068 66.5884L59.1402 67.5271C55.67 68.2667 52.5979 68.9209 49.9242 69.4898C47.2504 70.0018 44.8611 70.2578 42.7562 70.2578C40.31 70.2578 38.4042 69.888 37.0388 69.1484C35.7304 68.352 35.0762 67.0151 35.0762 65.1378C35.0762 64.2844 35.2468 63.2604 35.5882 62.0658C36.726 58.3111 39.7695 54.3289 44.7188 50.1191C48.0753 47.2747 51.8299 44.7431 55.9828 42.5244C60.1357 40.2489 64.3171 38.4569 68.5268 37.1484C72.7935 35.7831 76.7757 35.1004 80.4735 35.1004C83.318 35.1004 85.5651 35.7262 87.2148 36.9778C88.9215 38.2293 89.7748 39.936 89.7748 42.0978C89.7748 44.0889 89.0637 46.2222 87.6415 48.4978C87.2433 49.0667 86.9019 49.3511 86.6175 49.3511C86.5037 49.3511 86.3899 49.2658 86.2762 49.0951C86.1624 48.8675 86.1055 48.64 86.1055 48.4124C86.1055 48.3555 86.1055 48.2702 86.1055 48.1564C86.1624 47.9858 86.2193 47.7867 86.2762 47.5591C86.7313 46.1938 86.9588 44.8853 86.9588 43.6338C86.9588 41.6995 86.2762 40.2489 84.9108 39.2818C83.6024 38.3147 81.6966 37.9449 79.1935 38.1724C74.8131 38.6275 69.8068 40.0213 64.1748 42.3538C60.3633 43.9467 56.7508 45.824 53.3375 47.9858C49.9811 50.1475 47.0797 52.4515 44.6335 54.8978C42.2442 57.2871 40.5944 59.7049 39.6842 62.1511C39.4566 62.6062 39.3428 63.1467 39.3428 63.7724C39.3428 66.048 41.5899 67.1858 46.0842 67.1858C48.2459 67.1858 50.6068 66.9582 53.1668 66.5031C55.7837 66.048 58.7988 65.4791 62.2122 64.7964L65.1988 64.1991C66.2228 64.0284 67.2184 63.9431 68.1855 63.9431C70.006 63.9431 71.4566 64.3129 72.5375 65.0524C73.6184 65.792 74.1588 66.816 74.1588 68.1244C74.1588 69.3191 73.6468 70.7413 72.6228 72.3911C71.6557 73.9271 70.518 75.4062 69.2095 76.8284C67.9011 78.1938 66.4504 79.5307 64.8575 80.8391C61.6148 83.456 58.1446 85.5324 54.4468 87.0684C50.7491 88.6044 47.2504 89.3724 43.9508 89.3724Z" fill="black"/>
<path d="M45.3727 95.0613C43.9505 95.0613 42.8696 94.7485 42.13 94.1227C41.4474 93.4969 41.106 92.6436 41.106 91.5627C41.106 90.5387 41.4189 89.4293 42.0447 88.2347C42.6705 87.04 43.5523 85.9307 44.69 84.9067C45.0314 84.6222 45.3158 84.4516 45.5434 84.3947C45.7141 84.3947 45.8563 84.4516 45.97 84.5653C46.0269 84.6222 46.0554 84.736 46.0554 84.9067C46.0554 85.3049 45.7994 85.76 45.2874 86.272C43.6945 87.9218 42.898 89.3156 42.898 90.4533C42.898 91.0791 43.1825 91.648 43.7514 92.16C44.3203 92.672 44.9745 92.8996 45.714 92.8427C48.5585 92.7289 51.4883 92.1031 54.5034 90.9653C57.5185 89.8276 60.3345 88.2631 62.9514 86.272C65.5683 84.224 67.73 81.8916 69.4367 79.2747C70.6883 77.4542 71.314 75.8613 71.314 74.496C71.314 72.7325 70.1763 71.8507 67.9007 71.8507C67.5025 71.8507 67.0474 71.9076 66.5354 72.0213C66.0234 72.0782 65.4545 72.1636 64.8287 72.2773L60.562 73.216C57.0918 73.9556 54.0198 74.6098 51.346 75.1787C48.6723 75.6907 46.2829 75.9467 44.178 75.9467C41.7318 75.9467 39.826 75.5769 38.4607 74.8373C37.1523 74.0409 36.498 72.704 36.498 70.8267C36.498 69.9733 36.6687 68.9493 37.01 67.7547C38.1478 64 41.1914 60.0178 46.1407 55.808C49.4972 52.9636 53.2518 50.432 57.4047 48.2133C61.5576 45.9378 65.7389 44.1458 69.9487 42.8373C74.2154 41.472 78.1976 40.7893 81.8954 40.7893C84.7398 40.7893 86.9869 41.4151 88.6367 42.6667C90.3434 43.9182 91.1967 45.6249 91.1967 47.7867C91.1967 49.7778 90.4856 51.9111 89.0634 54.1867C88.6652 54.7556 88.3238 55.04 88.0394 55.04C87.9256 55.04 87.8118 54.9547 87.698 54.784C87.5843 54.5564 87.5274 54.3289 87.5274 54.1013C87.5274 54.0444 87.5274 53.9591 87.5274 53.8453C87.5843 53.6747 87.6412 53.4756 87.698 53.248C88.1532 51.8827 88.3807 50.5742 88.3807 49.3227C88.3807 47.3884 87.698 45.9378 86.3327 44.9707C85.0243 44.0036 83.1185 43.6338 80.6154 43.8613C76.2349 44.3164 71.2287 45.7102 65.5967 48.0427C61.7852 49.6356 58.1727 51.5129 54.7594 53.6747C51.4029 55.8365 48.5016 58.1404 46.0554 60.5867C43.666 62.976 42.0163 65.3938 41.106 67.84C40.8785 68.2951 40.7647 68.8356 40.7647 69.4613C40.7647 71.7369 43.0118 72.8747 47.506 72.8747C49.6678 72.8747 52.0287 72.6471 54.5887 72.192C57.2056 71.7369 60.2207 71.168 63.634 70.4853L66.6207 69.888C67.6447 69.7173 68.6403 69.632 69.6074 69.632C71.4278 69.632 72.8785 70.0018 73.9594 70.7413C75.0403 71.4809 75.5807 72.5049 75.5807 73.8133C75.5807 75.008 75.0687 76.4302 74.0447 78.08C73.0776 79.616 71.9398 81.0951 70.6314 82.5173C69.3229 83.8827 67.8723 85.2196 66.2794 86.528C63.0367 89.1449 59.5665 91.2213 55.8687 92.7573C52.1709 94.2933 48.6723 95.0613 45.3727 95.0613Z" fill="black"/>
</svg>
