<svg width="51" height="57" viewBox="0 0 51 57" fill="none" xmlns="http://www.w3.org/2000/svg">
<path d="M35.6622 28.0265V34.5638C35.6622 37.3252 33.4236 39.5638 30.6622 39.5638H7C4.23858 39.5638 2 37.3252 2 34.5638V21.4893C2 18.7278 4.23858 16.4893 7 16.4893H30.6622C33.4236 16.4893 35.6622 18.7278 35.6622 21.4893V28.0265ZM35.6622 28.0265L45.6916 19.351C46.9871 18.2304 49 19.1507 49 20.8637V35.1894C49 36.9023 46.9871 37.8226 45.6916 36.702L35.6622 28.0265Z" stroke="#5D7CFB" stroke-width="3" stroke-linecap="round" stroke-linejoin="round"/>
<path d="M6.12842 47.7817C6.12842 47.7817 13.1149 56 25.5 56C37.8852 56 45.1892 47.7817 45.1892 47.7817M6.12842 8.58664C6.12842 8.58664 13.1149 1.07197 25.5 1.0005C37.8852 0.929026 45.1892 8.58664 45.1892 8.58664" stroke="#BAC8FF" stroke-width="2" stroke-linecap="round" stroke-linejoin="round"/>
</svg>
