<svg width="64" height="64" viewBox="0 0 64 64" fill="none" xmlns="http://www.w3.org/2000/svg">
<path d="M63.5 32C63.5 49.397 49.397 63.5 32 63.5C14.603 63.5 0.5 49.397 0.5 32C0.5 14.603 14.603 0.5 32 0.5C49.397 0.5 63.5 14.603 63.5 32Z" stroke="#5D7CFB"/>
<path d="M20.6789 35.3129C19.8039 35.3129 19.0695 35.016 18.4758 34.4222C17.8977 33.8285 17.6086 33.1019 17.6086 32.2426C17.6086 31.3832 17.8977 30.6566 18.4758 30.0629C19.0695 29.4691 19.8039 29.1722 20.6789 29.1722C21.5695 29.1722 22.3117 29.4691 22.9055 30.0629C23.4992 30.641 23.7961 31.3676 23.7961 32.2426C23.7961 33.1176 23.4992 33.8519 22.9055 34.4457C22.3117 35.0238 21.5695 35.3129 20.6789 35.3129ZM31.9758 35.3129C31.1008 35.3129 30.3664 35.016 29.7727 34.4222C29.1945 33.8285 28.9055 33.1019 28.9055 32.2426C28.9055 31.3832 29.1945 30.6566 29.7727 30.0629C30.3664 29.4691 31.1008 29.1722 31.9758 29.1722C32.8664 29.1722 33.6086 29.4691 34.2023 30.0629C34.7961 30.641 35.093 31.3676 35.093 32.2426C35.093 33.1176 34.7961 33.8519 34.2023 34.4457C33.6086 35.0238 32.8664 35.3129 31.9758 35.3129ZM43.2727 35.3129C42.3977 35.3129 41.6633 35.016 41.0695 34.4222C40.4914 33.8285 40.2023 33.1019 40.2023 32.2426C40.2023 31.3832 40.4914 30.6566 41.0695 30.0629C41.6633 29.4691 42.3977 29.1722 43.2727 29.1722C44.1633 29.1722 44.9055 29.4691 45.4992 30.0629C46.093 30.641 46.3898 31.3676 46.3898 32.2426C46.3898 33.1176 46.093 33.8519 45.4992 34.4457C44.9055 35.0238 44.1633 35.3129 43.2727 35.3129Z" fill="#5D7CFB"/>
</svg>
